<svg width="32" height="32" viewBox="0 0 32 32" fill="none" xmlns="http://www.w3.org/2000/svg">
<g id="Viber" clip-path="url(#clip0_758_681)">
<g id="Viber_2">
<rect id="Rectangle" width="32" height="32" rx="16" fill="#EB5671"/>
<g id="Group">
<path id="Vector" d="M23.8347 8.12287C23.3054 7.63629 21.1628 6.07839 16.3866 6.05704C16.3866 6.05704 10.7568 5.71559 8.01237 8.23384C6.48435 9.76187 5.94655 11.9941 5.89106 14.7685C5.83557 17.5386 5.76301 22.733 10.7696 24.1415H10.7739L10.7696 26.2884C10.7696 26.2884 10.7398 27.1592 11.3117 27.3342C12.0032 27.5476 12.4129 26.886 13.0745 26.1732C13.4373 25.7805 13.9367 25.2086 14.3165 24.769C17.7397 25.0549 20.3732 24.3976 20.6719 24.2994C21.3634 24.0732 25.2774 23.5738 25.9133 18.3794C26.5706 13.0356 25.5932 9.65089 23.8347 8.12287ZM24.4152 18.0038C23.8774 22.3403 20.7061 22.6135 20.1213 22.8013C19.8738 22.8824 17.5604 23.4586 14.6495 23.2665C14.6495 23.2665 12.4812 25.883 11.8068 26.5616C11.7001 26.6683 11.5763 26.711 11.4952 26.6897C11.38 26.6598 11.3459 26.5232 11.3501 26.3226C11.3501 26.0323 11.3672 22.7501 11.3672 22.7501C11.3629 22.7501 11.3629 22.7501 11.3672 22.7501C7.12885 21.5763 7.37641 17.1544 7.42336 14.8411C7.47031 12.5277 7.90567 10.6283 9.19894 9.35212C11.5166 7.25215 16.3013 7.56373 16.3013 7.56373C20.339 7.5808 22.2725 8.79725 22.7207 9.20273C24.2103 10.4832 24.97 13.535 24.4152 18.0038Z" fill="white"/>
<path id="Vector_2" d="M18.3554 14.9218C18.2145 14.9218 18.095 14.8109 18.0865 14.6657C18.0395 13.7481 17.6085 13.2999 16.7292 13.253C16.5798 13.2444 16.4646 13.1164 16.4731 12.967C16.4816 12.8176 16.6097 12.7024 16.7591 12.7109C17.92 12.7749 18.5688 13.4408 18.6286 14.6359C18.6371 14.7853 18.5219 14.9133 18.3725 14.9176C18.3639 14.9218 18.3597 14.9218 18.3554 14.9218Z" fill="white"/>
<path id="Vector_3" d="M19.7365 15.383H19.7322C19.5828 15.3788 19.4633 15.255 19.4676 15.1056C19.4889 14.1837 19.2243 13.4367 18.6609 12.8221C18.1018 12.2075 17.3292 11.8745 16.3091 11.802C16.1597 11.7892 16.0487 11.6611 16.0616 11.5117C16.0744 11.3624 16.2024 11.2514 16.3518 11.2642C17.5042 11.3496 18.4133 11.7508 19.0621 12.4593C19.7152 13.1721 20.031 14.0641 20.0097 15.1184C20.0054 15.2678 19.8816 15.383 19.7365 15.383Z" fill="white"/>
<path id="Vector_4" d="M21.154 15.9377C21.0046 15.9377 20.8851 15.8182 20.8851 15.6688C20.8723 14.017 20.3985 12.7579 19.4339 11.8146C18.4821 10.8841 17.2742 10.4103 15.8529 10.3975C15.7035 10.3975 15.584 10.2738 15.584 10.1244C15.584 9.97498 15.7078 9.85547 15.8529 9.85547C17.4193 9.86827 18.751 10.3933 19.8053 11.4262C20.8638 12.4591 21.4058 13.8847 21.4229 15.6603C21.4272 15.8139 21.3077 15.9377 21.154 15.9377C21.1583 15.9377 21.1583 15.9377 21.154 15.9377Z" fill="white"/>
<path id="Vector_5" d="M16.7918 18.2638C16.7918 18.2638 17.1717 18.298 17.3766 18.0461L17.7735 17.5467C17.9656 17.2992 18.4308 17.1413 18.8832 17.3931C19.1351 17.5339 19.5918 17.8156 19.8735 18.0248C20.1765 18.2467 20.7911 18.7589 20.7954 18.7632C21.0899 19.0107 21.1582 19.3735 20.9576 19.762C20.9576 19.762 20.9576 19.7662 20.9576 19.7705C20.7527 20.1333 20.4753 20.4748 20.1296 20.7906C20.1253 20.7906 20.1253 20.7949 20.121 20.7949C19.8351 21.0339 19.5534 21.1705 19.2802 21.2003C19.246 21.2089 19.2076 21.2089 19.1564 21.2089C19.0369 21.2089 18.9174 21.1918 18.7979 21.1534L18.7893 21.1406C18.3625 21.0211 17.654 20.7223 16.476 20.0693C15.7077 19.6467 15.0717 19.2156 14.5297 18.7845C14.2437 18.5583 13.9534 18.3065 13.6547 18.0077C13.6461 17.9992 13.6333 17.9864 13.6248 17.9778C13.6163 17.9693 13.6034 17.9565 13.5949 17.948C13.5864 17.9394 13.5736 17.9266 13.565 17.9181C13.5565 17.9095 13.5437 17.8967 13.5352 17.8882C13.2406 17.5894 12.9846 17.2992 12.7583 17.0132C12.3272 16.4754 11.8962 15.8352 11.4736 15.0669C10.8206 13.8846 10.5218 13.1761 10.4023 12.7535L10.3895 12.745C10.3511 12.6255 10.334 12.506 10.334 12.3865C10.334 12.3352 10.334 12.2968 10.3425 12.2627C10.3767 11.9852 10.5132 11.7078 10.748 11.4218C10.748 11.4176 10.7523 11.4176 10.7523 11.4133C11.0681 11.0633 11.4096 10.7901 11.7724 10.5853C11.7724 10.5853 11.7766 10.5853 11.7809 10.5853C12.1651 10.3847 12.5279 10.453 12.7797 10.7475C12.7797 10.7475 13.2961 11.3664 13.5181 11.6694C13.7272 11.9554 14.0089 12.4078 14.1498 12.6596C14.4016 13.1121 14.2437 13.5773 13.9961 13.7694L13.4967 14.1663C13.2449 14.3712 13.2791 14.7511 13.2791 14.7511C13.2791 14.7511 14.0175 17.5596 16.7918 18.2638Z" fill="white"/>
</g>
</g>
</g>
<defs>
<clipPath id="clip0_758_681">
<rect width="32" height="32" fill="white"/>
</clipPath>
</defs>
</svg>
