<svg width="32" height="32" viewBox="0 0 32 32" fill="none" xmlns="http://www.w3.org/2000/svg">
<g id="Vkontakte (VK)" clip-path="url(#clip0_758_677)">
<g id="Vkontakte (VK)_2">
<rect id="Rectangle" width="32" height="32" rx="16" fill="#EB5671"/>
<path id="Vector" fill-rule="evenodd" clip-rule="evenodd" d="M26.1779 11.0234C26.3262 10.5289 26.1779 10.1655 25.472 10.1655H23.1381C22.5447 10.1655 22.2713 10.4794 22.1229 10.8257C22.1229 10.8257 20.936 13.7185 19.2546 15.5976C18.7106 16.1416 18.4634 16.3145 18.1666 16.3145C18.0183 16.3145 17.8036 16.1416 17.8036 15.6471V11.0234C17.8036 10.4299 17.6314 10.1655 17.1367 10.1655H13.4692C13.0985 10.1655 12.8754 10.4409 12.8754 10.702C12.8754 11.2646 13.7159 11.3943 13.8026 12.9767V16.4137C13.8026 17.1672 13.6666 17.3039 13.3699 17.3039C12.5787 17.3039 10.6542 14.3978 9.51263 11.0729C9.28891 10.4266 9.06452 10.1655 8.46805 10.1655H6.13417C5.46735 10.1655 5.33398 10.4794 5.33398 10.8257C5.33398 11.4438 6.12534 14.5099 9.01818 18.5648C10.947 21.3338 13.6639 22.8352 16.1365 22.8352C17.6202 22.8352 17.8036 22.5017 17.8036 21.9274V19.8345C17.8036 19.1676 17.9441 19.0346 18.4137 19.0346C18.7601 19.0346 19.3534 19.2076 20.7382 20.5428C22.3206 22.125 22.5813 22.8352 23.4716 22.8352H25.8054C26.4723 22.8352 26.8057 22.5017 26.6133 21.8438C26.4029 21.1879 25.6474 20.2367 24.6448 19.1088C24.1009 18.4658 23.2848 17.7735 23.0378 17.4274C22.6915 16.9823 22.7904 16.7846 23.0378 16.3891C23.0378 16.3891 25.8811 12.3835 26.1779 11.0236V11.0234Z" fill="white"/>
</g>
</g>
<defs>
<clipPath id="clip0_758_677">
<rect width="32" height="32" fill="white"/>
</clipPath>
</defs>
</svg>
