<svg width="32" height="32" viewBox="0 0 32 32" fill="none" xmlns="http://www.w3.org/2000/svg">
<g id="WhatsApp" clip-path="url(#clip0_758_673)">
<g id="WhatsApp_2">
<rect id="Rectangle" width="32" height="32" rx="16" fill="#EB5671"/>
<path id="Vector" d="M23.1657 8.80733C21.4503 7.04157 19.0792 6.08301 16.6576 6.08301C11.5116 6.08301 7.37467 10.2704 7.42512 15.3659C7.42512 16.9803 7.87917 18.5443 8.63593 19.9569L7.32422 24.7497L12.2179 23.4884C13.5801 24.2452 15.0936 24.5983 16.6071 24.5983C21.7026 24.5983 25.8395 20.4109 25.8395 15.3154C25.8395 12.8434 24.881 10.5226 23.1657 8.80733ZM16.6576 23.0344C15.2954 23.0344 13.9332 22.6812 12.7729 21.9749L12.4702 21.8236L9.54404 22.5803L10.3008 19.7046L10.099 19.4019C7.87917 15.8199 8.93863 11.0776 12.5711 8.85778C16.2035 6.63796 20.8954 7.69742 23.1152 11.3299C25.335 14.9623 24.2756 19.6542 20.6431 21.874C19.4828 22.6308 18.0702 23.0344 16.6576 23.0344ZM21.0972 17.4344L20.5422 17.1821C20.5422 17.1821 19.735 16.829 19.2305 16.5767C19.1801 16.5767 19.1296 16.5263 19.0792 16.5263C18.9278 16.5263 18.8269 16.5767 18.726 16.6272C18.726 16.6272 18.6756 16.6776 17.9693 17.4848C17.9188 17.5857 17.8179 17.6362 17.717 17.6362H17.6666C17.6161 17.6362 17.5152 17.5857 17.4648 17.5353L17.2125 17.4344C16.6576 17.1821 16.153 16.8794 15.7494 16.4758C15.6485 16.3749 15.4972 16.274 15.3963 16.1731C15.0431 15.8199 14.69 15.4163 14.4377 14.9623L14.3873 14.8614C14.3368 14.8109 14.3368 14.7605 14.2864 14.6596C14.2864 14.5587 14.2864 14.4578 14.3368 14.4073C14.3368 14.4073 14.5386 14.1551 14.69 14.0037C14.7909 13.9028 14.8413 13.7515 14.9422 13.6506C15.0431 13.4992 15.0936 13.2974 15.0431 13.1461C14.9927 12.8938 14.3873 11.5317 14.2359 11.229C14.135 11.0776 14.0341 11.0272 13.8828 10.9767H13.7314C13.6305 10.9767 13.4792 10.9767 13.3278 10.9767C13.2269 10.9767 13.126 11.0272 13.0251 11.0272L12.9747 11.0776C12.8738 11.1281 12.7729 11.229 12.672 11.2794C12.5711 11.3803 12.5206 11.4812 12.4197 11.5821C12.0666 12.0362 11.8648 12.5911 11.8648 13.1461C11.8648 13.5497 11.9657 13.9533 12.117 14.3064L12.1675 14.4578C12.6215 15.4163 13.2269 16.274 14.0341 17.0308L14.2359 17.2326C14.3873 17.3839 14.5386 17.4848 14.6395 17.6362C15.699 18.5443 16.9098 19.2001 18.272 19.5533C18.4233 19.6037 18.6251 19.6037 18.7765 19.6542C18.9278 19.6542 19.1296 19.6542 19.281 19.6542C19.5332 19.6542 19.8359 19.5533 20.0377 19.4524C20.1891 19.3515 20.29 19.3515 20.3909 19.2506L20.4918 19.1497C20.5927 19.0488 20.6936 18.9983 20.7945 18.8974C20.8954 18.7965 20.9963 18.6956 21.0467 18.5947C21.1476 18.3929 21.1981 18.1407 21.2485 17.8884C21.2485 17.7875 21.2485 17.6362 21.2485 17.5353C21.2485 17.5353 21.1981 17.4848 21.0972 17.4344Z" fill="white"/>
</g>
</g>
<defs>
<clipPath id="clip0_758_673">
<rect width="32" height="32" fill="white"/>
</clipPath>
</defs>
</svg>
