<svg width="32" height="32" viewBox="0 0 32 32" fill="none" xmlns="http://www.w3.org/2000/svg">
<g clip-path="url(#clip0_741_637)">
<rect width="32" height="32" rx="16" fill="white"/>
<path fill-rule="evenodd" clip-rule="evenodd" d="M19.5567 23.9229C20.6751 24.4121 21.0944 23.387 21.0944 23.387L24.0534 8.5224C24.0301 7.52055 22.6788 8.12632 22.6788 8.12632L6.11335 14.6267C6.11335 14.6267 5.32119 14.9063 5.39109 15.3955C5.46098 15.8848 6.09005 16.1178 6.09005 16.1178L10.2605 17.5157C10.2605 17.5157 11.5187 21.6396 11.7749 22.4318C12.0079 23.2006 12.2176 23.2239 12.2176 23.2239C12.4506 23.3171 12.6603 23.154 12.6603 23.154L15.363 20.7076L19.5567 23.9229ZM20.2785 11.155C20.2785 11.155 20.861 10.8055 20.8377 11.155C20.8377 11.155 20.9309 11.2016 20.628 11.5278C20.3484 11.8074 13.7549 17.7252 12.8695 18.5174C12.7996 18.564 12.753 18.6339 12.753 18.7271L12.4967 20.9172C12.4501 21.1502 12.1473 21.1735 12.0774 20.9638L10.9823 17.3758C10.9357 17.236 10.9823 17.0729 11.1221 16.9797L20.2785 11.155Z" fill="#161616"/>
</g>
<defs>
<clipPath id="clip0_741_637">
<rect width="32" height="32" fill="white"/>
</clipPath>
</defs>
</svg>
