<svg width="32" height="32" viewBox="0 0 32 32" fill="none" xmlns="http://www.w3.org/2000/svg">
<g clip-path="url(#clip0_741_635)">
<rect width="32" height="32" rx="16" fill="white"/>
<path d="M23.8347 8.12287C23.3054 7.63629 21.1628 6.07839 16.3866 6.05704C16.3866 6.05704 10.7568 5.71559 8.01237 8.23384C6.48435 9.76187 5.94655 11.9941 5.89106 14.7685C5.83557 17.5386 5.76301 22.733 10.7696 24.1415H10.7739L10.7696 26.2884C10.7696 26.2884 10.7398 27.1592 11.3117 27.3342C12.0032 27.5476 12.4129 26.886 13.0745 26.1732C13.4373 25.7805 13.9367 25.2086 14.3165 24.769C17.7397 25.0549 20.3732 24.3976 20.6719 24.2994C21.3634 24.0732 25.2774 23.5738 25.9133 18.3794C26.5706 13.0356 25.5932 9.65089 23.8347 8.12287ZM24.4152 18.0038C23.8774 22.3403 20.7061 22.6135 20.1213 22.8013C19.8738 22.8824 17.5604 23.4586 14.6495 23.2665C14.6495 23.2665 12.4812 25.883 11.8068 26.5616C11.7001 26.6683 11.5763 26.711 11.4952 26.6897C11.38 26.6598 11.3459 26.5232 11.3501 26.3226C11.3501 26.0323 11.3672 22.7501 11.3672 22.7501C11.3629 22.7501 11.3629 22.7501 11.3672 22.7501C7.12885 21.5763 7.37641 17.1544 7.42336 14.8411C7.47031 12.5277 7.90567 10.6283 9.19894 9.35212C11.5166 7.25215 16.3013 7.56373 16.3013 7.56373C20.339 7.5808 22.2725 8.79725 22.7207 9.20273C24.2103 10.4832 24.97 13.535 24.4152 18.0038Z" fill="#161616"/>
<path d="M18.3554 14.9218C18.2145 14.9218 18.095 14.8109 18.0865 14.6657C18.0395 13.7481 17.6085 13.2999 16.7292 13.253C16.5798 13.2444 16.4646 13.1164 16.4731 12.967C16.4816 12.8176 16.6097 12.7024 16.7591 12.7109C17.92 12.7749 18.5688 13.4408 18.6286 14.6359C18.6371 14.7853 18.5219 14.9133 18.3725 14.9176C18.3639 14.9218 18.3597 14.9218 18.3554 14.9218Z" fill="#161616"/>
<path d="M19.7345 15.383H19.7303C19.5809 15.3788 19.4614 15.255 19.4656 15.1056C19.487 14.1837 19.2224 13.4367 18.6589 12.8221C18.0998 12.2075 17.3273 11.8745 16.3072 11.802C16.1578 11.7892 16.0468 11.6611 16.0596 11.5117C16.0724 11.3624 16.2005 11.2514 16.3498 11.2642C17.5023 11.3496 18.4114 11.7508 19.0602 12.4593C19.7132 13.1721 20.0291 14.0641 20.0077 15.1184C20.0034 15.2678 19.8797 15.383 19.7345 15.383Z" fill="#161616"/>
<path d="M21.156 15.9377C21.0066 15.9377 20.8871 15.8182 20.8871 15.6688C20.8743 14.017 20.4005 12.7579 19.4359 11.8146C18.4841 10.8841 17.2762 10.4103 15.8548 10.3975C15.7054 10.3975 15.5859 10.2738 15.5859 10.1244C15.5859 9.97498 15.7097 9.85547 15.8548 9.85547C17.4213 9.86827 18.753 10.3933 19.8072 11.4262C20.8657 12.4591 21.4078 13.8847 21.4249 15.6603C21.4291 15.8139 21.3096 15.9377 21.156 15.9377C21.1602 15.9377 21.1602 15.9377 21.156 15.9377Z" fill="#161616"/>
<path d="M16.7938 18.2638C16.7938 18.2638 17.1736 18.298 17.3785 18.0461L17.7755 17.5467C17.9675 17.2992 18.4328 17.1413 18.8852 17.3931C19.137 17.5339 19.5937 17.8156 19.8754 18.0248C20.1785 18.2467 20.7931 18.7589 20.7974 18.7632C21.0919 19.0107 21.1602 19.3735 20.9596 19.762C20.9596 19.762 20.9596 19.7662 20.9596 19.7705C20.7547 20.1333 20.4772 20.4748 20.1315 20.7906C20.1273 20.7906 20.1273 20.7949 20.123 20.7949C19.837 21.0339 19.5553 21.1705 19.2821 21.2003C19.248 21.2089 19.2096 21.2089 19.1584 21.2089C19.0389 21.2089 18.9193 21.1918 18.7998 21.1534L18.7913 21.1406C18.3645 21.0211 17.6559 20.7223 16.4779 20.0693C15.7096 19.6467 15.0737 19.2156 14.5316 18.7845C14.2456 18.5583 13.9554 18.3065 13.6566 18.0077C13.6481 17.9992 13.6353 17.9864 13.6267 17.9778C13.6182 17.9693 13.6054 17.9565 13.5969 17.948C13.5883 17.9394 13.5755 17.9266 13.567 17.9181C13.5584 17.9095 13.5456 17.8967 13.5371 17.8882C13.2426 17.5894 12.9865 17.2992 12.7603 17.0132C12.3292 16.4754 11.8981 15.8352 11.4756 15.0669C10.8225 13.8846 10.5237 13.1761 10.4042 12.7535L10.3914 12.745C10.353 12.6255 10.3359 12.506 10.3359 12.3865C10.3359 12.3352 10.3359 12.2968 10.3445 12.2627C10.3786 11.9852 10.5152 11.7078 10.75 11.4218C10.75 11.4176 10.7542 11.4176 10.7542 11.4133C11.0701 11.0633 11.4115 10.7901 11.7743 10.5853C11.7743 10.5853 11.7786 10.5853 11.7829 10.5853C12.167 10.3847 12.5298 10.453 12.7816 10.7475C12.7816 10.7475 13.2981 11.3664 13.52 11.6694C13.7292 11.9554 14.0109 12.4078 14.1517 12.6596C14.4036 13.1121 14.2456 13.5773 13.9981 13.7694L13.4987 14.1663C13.2469 14.3712 13.281 14.7511 13.281 14.7511C13.281 14.7511 14.0194 17.5596 16.7938 18.2638Z" fill="#161616"/>
</g>
<defs>
<clipPath id="clip0_741_635">
<rect width="32" height="32" fill="white"/>
</clipPath>
</defs>
</svg>
