<svg width="36" height="41" viewBox="0 0 36 41" fill="none" xmlns="http://www.w3.org/2000/svg">
<path id="check 1 (Traced)" fill-rule="evenodd" clip-rule="evenodd" d="M4.66559 1.59396C3.51359 2.2486 2.91559 3.78421 2.91559 6.09055C2.91559 8.29543 2.26759 10.0613 1.16559 10.8545C-0.236412 11.8652 -0.336412 12.3618 0.665588 13.353C1.35359 14.033 1.91559 15.5988 1.91559 16.833C1.91559 18.0671 2.36559 19.0769 2.91559 19.0769C3.46559 19.0769 3.91559 19.6759 3.91559 20.4086C3.91559 21.1413 4.81559 22.8564 5.91559 24.2213C8.46759 27.3862 8.42859 27.8574 5.61559 27.8574C2.07559 27.8574 0.900588 29.7374 1.07259 35.1257L1.22959 40.0525L1.82259 35.2886L2.41559 30.5247L4.71159 35.1627C5.97359 37.714 7.23059 39.5823 7.50459 39.3159C7.77759 39.0486 7.24359 37.2798 6.31659 35.3842C5.28759 33.2798 4.92959 31.2379 5.39659 30.1413C6.20159 28.2515 6.68459 29.2154 8.89359 37.1257C9.68359 39.9559 9.71459 39.9208 9.81359 36.0691C9.92859 31.5735 10.4676 30.6779 12.5786 31.4681C13.6686 31.8759 13.9116 33.0535 13.5206 36.0349L12.9956 40.0525L14.3786 36.1501C15.1396 34.0037 15.7966 31.4788 15.8386 30.5403C15.9356 28.3881 17.4986 28.3169 18.3286 30.4271C18.6736 31.3032 18.0466 33.5237 16.9356 35.3608C14.6596 39.1237 14.5426 39.5647 15.8166 39.5647C16.3116 39.5647 17.5496 37.591 18.5666 35.1784C19.5836 32.7657 20.7526 30.7901 21.1656 30.7881C21.5786 30.7862 21.9156 29.0281 21.9156 26.8818C21.9156 24.1345 22.3426 22.9793 23.3566 22.9793C24.1496 22.9793 25.0336 23.351 25.3216 23.8057C25.9376 24.7793 30.5016 24.6847 31.5346 23.6769C31.9276 23.2935 32.8486 22.9793 33.5826 22.9793C34.5456 22.9793 34.9156 24.6057 34.9156 28.833C34.9156 33.5384 34.6026 34.6866 33.3216 34.6866C32.4456 34.6866 31.4926 35.5647 31.2056 36.6379C30.7826 38.2145 29.8416 38.5891 26.2986 38.5891C22.0766 38.5891 21.9156 38.4798 21.9156 35.6047C21.9156 33.8632 21.4986 32.871 20.9156 33.2232C19.3006 34.1969 19.7406 39.2906 21.4976 39.9481C22.3676 40.274 24.9886 40.5403 27.3226 40.5403C33.8876 40.5403 35.9156 37.8369 35.9156 29.0857C35.9156 22.2749 35.8566 22.1179 32.7616 20.6115C29.2106 18.8827 24.9156 18.5774 24.9156 20.0525C24.9156 20.5891 24.0156 21.0281 22.9156 21.0281C21.3556 21.0281 20.9156 21.6788 20.9156 23.9852C20.9156 27.0759 19.0786 28.5013 16.3926 27.4964C15.1026 27.0135 15.1786 26.6252 16.8926 24.953C18.0056 23.8671 18.9156 22.1481 18.9156 21.1325C18.9156 20.1169 19.6216 19.0213 20.4846 18.6984C21.4996 18.3188 21.8376 17.4486 21.4436 16.2369C21.1086 15.2066 21.3026 14.0808 21.8746 13.7354C23.4516 12.7852 23.1196 10.2964 21.4156 10.2964C20.3096 10.2964 19.9156 9.16957 19.9156 6.01055C19.9156 3.00275 19.4436 1.54811 18.3336 1.1325C15.8186 0.191038 6.58559 0.503233 4.66559 1.59396ZM18.9156 4.93055C18.9156 7.20665 18.5826 7.36957 13.9156 7.36957C7.28259 7.36957 7.48059 9.12079 14.1656 9.57738C17.9376 9.83494 17.1636 9.9647 11.4156 10.0388C7.01559 10.0954 3.94559 9.93153 4.59359 9.67396C5.33759 9.37738 5.56559 7.9725 5.21259 5.8486L4.65359 2.49153H11.7846C18.7246 2.49153 18.9156 2.55689 18.9156 4.93055ZM15.6656 11.9891C13.0526 12.1901 8.77759 12.1901 6.16559 11.9891C3.55259 11.7881 5.69059 11.6232 10.9156 11.6232C16.1406 11.6232 18.2786 11.7881 15.6656 11.9891ZM17.9156 18.1013C17.9156 22.5881 15.2336 25.9062 11.6066 25.9062C7.73359 25.9062 5.75359 23.7071 5.18359 18.7735L4.65559 14.1988H11.2856H17.9156V18.1013ZM5.91559 17.0213C5.91559 18.9403 8.42159 20.4652 10.0056 19.5101C10.5066 19.2086 10.9156 18.1101 10.9156 17.0681C10.9156 15.6984 10.2236 15.1745 8.41559 15.1745C6.62959 15.1745 5.91559 15.7013 5.91559 17.0213ZM11.9156 16.5188C11.9156 18.3188 14.5666 20.3784 15.8716 19.591C16.4456 19.2447 16.9156 18.1101 16.9156 17.0681C16.9156 15.6984 16.2236 15.1745 14.4156 15.1745C12.9586 15.1745 11.9156 15.7354 11.9156 16.5188ZM9.91559 16.9627C9.91559 17.4105 9.24059 17.7764 8.41559 17.7764C7.59059 17.7764 6.91559 17.4105 6.91559 16.9627C6.91559 16.5159 7.59059 16.1501 8.41559 16.1501C9.24059 16.1501 9.91559 16.5159 9.91559 16.9627ZM15.9156 17.1257C15.9156 17.6623 15.2406 18.1013 14.4156 18.1013C13.5906 18.1013 12.9156 17.6623 12.9156 17.1257C12.9156 16.5891 13.5906 16.1501 14.4156 16.1501C15.2406 16.1501 15.9156 16.5891 15.9156 17.1257ZM10.1846 22.6798C11.1576 22.9276 12.5076 22.911 13.1846 22.6437C13.8616 22.3764 13.0656 22.1745 11.4156 22.194C9.76559 22.2135 9.21159 22.432 10.1846 22.6798ZM23.3446 27.8574C23.3446 29.5335 24.0106 29.8086 28.0676 29.8086C32.1746 29.8086 32.7716 29.554 32.6406 27.8574C32.5136 26.2125 31.7736 25.9062 27.9166 25.9062C24.0106 25.9062 23.3446 26.191 23.3446 27.8574ZM12.9156 27.8574C12.9156 28.394 12.4656 28.833 11.9156 28.833C11.3656 28.833 10.9156 28.394 10.9156 27.8574C10.9156 27.3208 11.3656 26.8818 11.9156 26.8818C12.4656 26.8818 12.9156 27.3208 12.9156 27.8574ZM14.9156 29.8086C14.9156 30.3452 14.4386 30.7842 13.8566 30.7842C13.2746 30.7842 13.0756 30.3452 13.4156 29.8086C13.7556 29.272 14.2316 28.833 14.4746 28.833C14.7176 28.833 14.9156 29.272 14.9156 29.8086ZM24.2936 32.2066C23.8956 33.2174 24.1906 34.2574 25.0196 34.7705C26.1026 35.4388 26.1216 35.6359 25.1066 35.6476C24.3866 35.6554 24.0806 36.1081 24.4256 36.6535C25.4816 38.3208 26.9836 36.6349 26.6446 34.1637C26.2156 31.0359 25.1146 30.1198 24.2936 32.2066Z" fill="white"/>
</svg>
