<svg width="39" height="39" viewBox="0 0 39 39" fill="none" xmlns="http://www.w3.org/2000/svg">
<path id="check 2 (Traced)" fill-rule="evenodd" clip-rule="evenodd" d="M4.45375 1.29545C4.45375 1.79593 3.56497 2.48667 2.47814 2.83203C0.589356 3.43106 0.514234 4.13252 0.770819 18.7511L1.03911 34.0437L9.8196 34.5315C16.205 34.8867 19.3406 35.5208 21.3152 36.8594C26.6733 40.4925 34.6733 38.5813 37.6879 32.9501C39.4723 29.6164 39.2635 23.6135 37.2645 20.7598C36.1708 19.1979 35.6733 16.4067 35.6733 11.8291C35.6733 5.88179 35.3972 4.91496 33.0918 2.7774C30.444 0.323738 27.8684 -0.374798 27.8684 1.36081C27.8684 2.65545 8.66838 2.65545 7.86838 1.36081C7.1074 0.129592 4.45375 0.0778847 4.45375 1.29545ZM6.07521 4.53154C5.80497 5.20276 5.5835 4.65349 5.5835 3.31203C5.5835 1.97057 5.80497 1.42228 6.07521 2.09252C6.34643 2.76374 6.34643 3.8613 6.07521 4.53154ZM29.4898 4.53154C29.2196 5.20276 28.9981 4.65349 28.9981 3.31203C28.9981 1.97057 29.2196 1.42228 29.4898 2.09252C29.7611 2.76374 29.7611 3.8613 29.4898 4.53154ZM5.99618 7.21447C6.79131 7.21447 7.69472 6.55593 8.00301 5.75106C8.8235 3.61252 26.4255 3.61252 27.2459 5.75106C28.0069 7.73447 30.4742 7.59984 31.6928 5.50715C32.5806 3.98228 32.6898 4.03496 32.7172 5.99496C32.7464 8.1813 32.683 8.19008 17.1367 8.19008C4.77862 8.19008 1.52692 7.91886 1.52692 6.88959C1.52692 4.79203 2.81277 4.10813 3.71618 5.72374C4.1757 6.54325 5.20106 7.21447 5.99618 7.21447ZM32.7464 13.1901C32.7464 16.0574 32.5718 16.2037 29.8196 15.6535C21.9084 14.0711 13.4781 23.0857 16.1923 30.2242L17.0879 32.5803H9.3074H1.52692V21.3608V10.1413H17.1367H32.7464V13.1901ZM3.47814 21.3608V31.6047L9.08789 31.6057L14.6976 31.6067L14.5133 26.0164C14.4001 22.5745 14.7747 20.1432 15.4889 19.6886C16.3669 19.1306 16.3523 18.9481 15.4294 18.9364C14.7591 18.9286 14.2098 18.2633 14.2098 17.4584C14.2098 15.875 16.7659 15.4145 17.2996 16.9023C17.4781 17.4018 18.4772 17.1823 19.5181 16.4145C20.5601 15.6476 20.8889 15.0193 20.2498 15.0193C19.6108 15.0193 19.0879 14.3608 19.0879 13.5559C19.0879 11.5686 20.7181 11.7081 21.9367 13.7998C22.884 15.4262 22.9328 15.4262 22.9611 13.7998C22.9942 11.8437 25.4703 11.4847 26.324 13.312C26.7786 14.2876 27.0069 14.2876 27.4616 13.312C28.2976 11.5208 30.5825 11.8272 31.0986 13.7998C31.4342 15.0847 31.5728 14.9637 31.6576 13.312C31.7698 11.1315 31.6781 11.1169 17.6245 11.1169H3.47814V21.3608ZM7.52692 13.5559C7.52692 14.0652 7.05472 14.6398 6.47814 14.832C5.90155 15.0242 5.42936 14.4506 5.42936 13.5559C5.42936 12.6613 5.90155 12.0876 6.47814 12.2798C7.05472 12.472 7.52692 13.0467 7.52692 13.5559ZM12.2586 13.5559C12.2586 14.3608 11.6001 15.0193 10.7952 15.0193C9.99033 15.0193 9.33179 14.3608 9.33179 13.5559C9.33179 12.7511 9.99033 12.0925 10.7952 12.0925C11.6001 12.0925 12.2586 12.7511 12.2586 13.5559ZM17.1367 13.5559C17.1367 14.3608 16.4781 15.0193 15.6733 15.0193C14.8684 15.0193 14.2098 14.3608 14.2098 13.5559C14.2098 12.7511 14.8684 12.0925 15.6733 12.0925C16.4781 12.0925 17.1367 12.7511 17.1367 13.5559ZM7.52692 17.4584C7.52692 17.9686 7.05472 18.5423 6.47814 18.7345C5.90155 18.9267 5.42936 18.353 5.42936 17.4584C5.42936 16.5637 5.90155 15.9901 6.47814 16.1823C7.05472 16.3745 7.52692 16.9481 7.52692 17.4584ZM12.2586 17.4584C12.2586 18.2633 11.6001 18.9218 10.7952 18.9218C9.99033 18.9218 9.33179 18.2633 9.33179 17.4584C9.33179 16.6535 9.99033 15.995 10.7952 15.995C11.6001 15.995 12.2586 16.6535 12.2586 17.4584ZM29.1064 17.6106C28.4459 17.8779 27.1289 17.8945 26.1796 17.6467C25.2303 17.3989 25.7708 17.1803 27.3806 17.1608C28.9903 17.1413 29.7669 17.3433 29.1064 17.6106ZM22.0147 19.2906C22.0147 19.4925 21.2459 20.2613 20.3074 20.9979C18.7601 22.2106 18.7259 22.1764 19.9386 20.6291C21.2137 19.0037 22.0147 18.4876 22.0147 19.2906ZM7.52692 21.3608C7.52692 21.8711 7.05472 22.4447 6.47814 22.6369C5.90155 22.8291 5.42936 22.2554 5.42936 21.3608C5.42936 20.4662 5.90155 19.8925 6.47814 20.0847C7.05472 20.2769 7.52692 20.8506 7.52692 21.3608ZM12.2586 21.3608C12.2586 22.1657 11.6001 22.8242 10.7952 22.8242C9.99033 22.8242 9.33179 22.1657 9.33179 21.3608C9.33179 20.5559 9.99033 19.8974 10.7952 19.8974C11.6001 19.8974 12.2586 20.5559 12.2586 21.3608ZM32.7464 21.8486C33.9542 23.0564 34.6977 25.1003 34.6977 27.2145C34.6977 31.5618 31.8528 34.5315 27.6869 34.5315C21.0518 34.5315 17.6811 26.9501 22.1845 22.155C24.8859 19.2808 30.0294 19.1315 32.7464 21.8486ZM25.6733 21.9267C23.5825 23.1442 23.4284 26.5813 25.4294 27.3491C26.2342 27.6584 26.8791 28.8515 26.8616 30.0018C26.8313 32.0496 26.802 32.0545 25.3981 30.1989C24.2518 28.6828 23.9659 28.6106 23.9659 29.835C23.9659 32.5452 26.6372 33.9852 29.3611 32.7442C32.0908 31.5013 32.4674 29.4945 30.3074 27.7023C29.5025 27.034 28.844 25.8964 28.844 25.1745C28.844 24.4076 29.4528 24.0945 30.3074 24.4223C32.1981 25.1481 32.1708 24.3384 30.2381 22.4057C28.4606 20.6291 27.9864 20.5793 25.6733 21.9267ZM26.5064 25.4867C25.5152 26.4789 24.6967 24.9852 25.5103 23.6691C26.125 22.674 26.3552 22.674 26.685 23.6652C26.9113 24.3433 26.8303 25.1628 26.5064 25.4867ZM7.52692 25.2633C7.52692 25.7735 7.05472 26.3472 6.47814 26.5393C5.90155 26.7315 5.42936 26.1579 5.42936 25.2633C5.42936 24.3686 5.90155 23.795 6.47814 23.9872C7.05472 24.1793 7.52692 24.753 7.52692 25.2633ZM12.2586 25.2633C12.2586 26.0681 11.6001 26.7267 10.7952 26.7267C9.99033 26.7267 9.33179 26.0681 9.33179 25.2633C9.33179 24.4584 9.99033 23.7998 10.7952 23.7998C11.6001 23.7998 12.2586 24.4584 12.2586 25.2633ZM17.803 27.8857C17.4918 28.6632 17.2606 28.432 17.2137 27.2954C17.1718 26.2672 17.402 25.6915 17.7259 26.0154C18.0498 26.3393 18.085 27.1813 17.803 27.8857ZM7.52692 29.1657C7.52692 29.6759 7.05472 30.2496 6.47814 30.4418C5.90155 30.634 5.42936 30.0603 5.42936 29.1657C5.42936 28.2711 5.90155 27.6974 6.47814 27.8896C7.05472 28.0818 7.52692 28.6554 7.52692 29.1657ZM12.2586 29.1657C12.2586 29.9706 11.6001 30.6291 10.7952 30.6291C9.99033 30.6291 9.33179 29.9706 9.33179 29.1657C9.33179 28.3608 9.99033 27.7023 10.7952 27.7023C11.6001 27.7023 12.2586 28.3608 12.2586 29.1657ZM21.164 34.2876C22.3767 35.835 22.3425 35.8691 20.7952 34.6564C19.8567 33.9198 19.0879 33.1511 19.0879 32.9491C19.0879 32.1462 19.8889 32.6623 21.164 34.2876ZM33.2342 35.5072C32.9025 36.0437 32.1084 36.4759 31.4694 36.4681C30.7708 36.4584 30.8918 36.075 31.7708 35.5072C33.645 34.2954 33.9825 34.2954 33.2342 35.5072ZM29.1064 37.1228C28.4459 37.3901 27.1289 37.4067 26.1796 37.1589C25.2303 36.9111 25.7708 36.6925 27.3806 36.673C28.9903 36.6535 29.7669 36.8554 29.1064 37.1228Z" fill="white"/>
</svg>
