<svg width="40" height="37" viewBox="0 0 40 37" fill="none" xmlns="http://www.w3.org/2000/svg">
<path id="check 2 (Traced)" fill-rule="evenodd" clip-rule="evenodd" d="M17.5061 4.13882C13.5168 8.20321 12.91 10.5983 15.87 10.5983C17.5207 10.5983 18.5139 15.5759 17.1841 17.1837C16.629 17.8549 15.5705 18.4032 14.8319 18.4032C14.0924 18.4032 13.4875 19.0159 13.4875 19.7642C13.4875 21.1213 12.7929 21.8461 4.95095 28.6774C0.576318 32.4881 -0.0383162 34.05 2.13046 35.85C3.14412 36.691 4.07778 36.4598 6.10607 34.8647L8.75681 32.7798L11.5705 34.8598C14.0885 36.7213 15.6631 36.9398 26.5607 36.9398C39.5139 36.9398 41.5305 36.2305 37.9812 32.9242C36.8514 31.8715 35.9266 31.4803 35.9266 32.0549C35.9266 32.7535 32.1344 33.0081 24.4749 32.8247C14.4729 32.5847 12.9822 32.3339 12.6963 30.8422C12.4124 29.3632 13.1861 29.1349 18.4895 29.1349C25.4573 29.1349 25.3675 27.532 18.3656 26.9281C15.951 26.7193 19.0241 26.5486 25.1949 26.5486C31.3656 26.5486 34.548 26.7174 32.268 26.9222C26.9822 27.3983 26.9031 28.8139 32.1344 29.3125C35.1022 29.5954 36.2934 29.3047 36.708 28.1954C37.0163 27.371 37.9119 26.2139 38.6983 25.6247C40.9431 23.9408 39.1002 22.3056 34.9588 22.3056H31.1792L34.5285 18.7544C38.3831 14.6676 38.6485 13.5437 35.9266 12.8325C34.8534 12.5515 33.9753 11.5827 33.9753 10.6793C33.9753 6.60613 31.8749 6.99735 27.1412 11.9535C23.3178 15.9564 22.1353 16.6988 21.148 15.7164C20.1597 14.733 20.7558 13.6393 24.1822 10.1486C26.5266 7.7593 28.8114 6.0315 29.2592 6.3076C29.707 6.58467 30.0729 6.40028 30.0729 5.89687C30.0729 4.52711 27.5295 2.68613 26.0739 3.00321C25.3705 3.15638 24.7753 2.62857 24.751 1.8315C24.6631 -1.05435 21.6651 -0.0992317 17.5061 4.13882ZM27.1461 21.0003C27.1461 21.9017 25.7519 22.3056 22.6368 22.3056C18.7851 22.3056 18.3002 22.0969 19.3139 20.8754C20.8105 19.0715 27.1461 19.173 27.1461 21.0003ZM19.5851 30.8208C21.5978 31.0315 24.8905 31.0315 26.9022 30.8208C28.9149 30.611 27.268 30.4383 23.2436 30.4383C19.2192 30.4383 17.5734 30.611 19.5851 30.8208Z" fill="white"/>
</svg>
