<svg width="33" height="37" viewBox="0 0 33 37" fill="none" xmlns="http://www.w3.org/2000/svg">
<path id="check 3 (Traced)" fill-rule="evenodd" clip-rule="evenodd" d="M0.904846 17.6575V34.7306H13.1136C20.6697 34.7306 26.0112 35.1609 27.1302 35.8604C29.4424 37.3043 32.1244 36.2926 32.1244 33.9775C32.1244 32.9921 30.5878 30.6975 28.7097 28.877L25.2951 25.5677V13.076V0.58429H21.4502C19.3351 0.58429 17.3341 1.02331 17.0024 1.5599C16.6434 2.14039 17.8053 2.53551 19.8717 2.53551H23.3439V12.9306C23.3439 23.3238 23.3439 23.3258 21.3585 21.5287C19.4239 19.7784 19.3175 19.7862 17.2463 21.8584L15.1195 23.9853L19.4346 28.3823L23.7497 32.7794H13.3029H2.85607V17.6575V2.53551H5.7829C7.39265 2.53551 8.70972 2.09648 8.70972 1.5599C8.70972 1.02331 6.95363 0.58429 4.80729 0.58429H0.904846V17.6575Z" fill="white"/>
</svg>
