<svg width="97" height="112" viewBox="0 0 97 112" fill="none" xmlns="http://www.w3.org/2000/svg">
<g id="Group">
<g id="Group_2">
<g id="Group_3">
<path id="Vector" opacity="0.83" d="M0 26.8644V82.3176C0 86.2879 4.48 88.7816 8.225 86.9769L59.78 61.5144C63.63 59.6113 63.805 54.5254 60.13 52.3926L8.575 22.4019C4.795 20.2363 0 22.7629 0 26.8644Z" fill="url(#paint0_linear_10_107)"/>
</g>
<g id="Group_4">
<path id="Vector_2" opacity="0.83" d="M26.565 43.1722V105.254C26.565 109.683 31.57 112.505 35.77 110.471L93.485 81.9566C97.79 79.8238 98 74.1472 93.87 71.7519L36.155 38.1519C31.955 35.7238 26.565 38.5457 26.565 43.1722Z" fill="url(#paint1_linear_10_107)"/>
</g>
<g id="Group_5">
<path id="Vector_3" opacity="0.83" d="M26.565 5.89725V67.9785C26.565 72.4082 31.57 75.2301 35.77 73.1957L93.485 44.6816C97.79 42.5488 98 36.8723 93.87 34.4769L36.155 0.909753C31.955 -1.55118 26.565 1.27069 26.565 5.89725Z" fill="url(#paint2_linear_10_107)"/>
</g>
</g>
</g>
<defs>
<linearGradient id="paint0_linear_10_107" x1="0" y1="21.6088" x2="167.651" y2="200.436" gradientUnits="userSpaceOnUse">
<stop stop-color="#2D388A"/>
<stop offset="1" stop-color="#00AEEF"/>
</linearGradient>
<linearGradient id="paint1_linear_10_107" x1="26.565" y1="37.2613" x2="194.216" y2="216.089" gradientUnits="userSpaceOnUse">
<stop stop-color="#2D388A"/>
<stop offset="1" stop-color="#00AEEF"/>
</linearGradient>
<linearGradient id="paint2_linear_10_107" x1="26.565" y1="0" x2="194.216" y2="178.827" gradientUnits="userSpaceOnUse">
<stop stop-color="#2D388A"/>
<stop offset="1" stop-color="#00AEEF"/>
</linearGradient>
</defs>
</svg>
